<svg xmlns="http://www.w3.org/2000/svg" viewBox="0 0 120 120" width="120" height="120" role="img" aria-label="燃える情熱の心">
  <!-- 羊皮紙タイル -->
  <rect x="3" y="3" width="114" height="114" rx="9" fill="#e9ddc0" stroke="#6b4f2a" stroke-width="2.5"/>
  <rect x="9" y="9" width="102" height="102" rx="6" fill="none" stroke="#6b4f2a" stroke-width="1.4" opacity="0.7"/>
  <!-- 四隅の飾り -->
  <g stroke="#6b4f2a" stroke-width="1.6" stroke-linecap="round" opacity="0.75">
    <path d="M15 20 L15 15 L20 15 M105 20 L105 15 L100 15 M15 100 L15 105 L20 105 M105 100 L105 105 L100 105"/>
  </g>
  <!-- 炎 -->
  <g fill="#e6b866" stroke="#3f2d18" stroke-width="2.4" stroke-linejoin="round" stroke-linecap="round">
    <path d="M60 52 C54 40 64 33 59 20 C71 29 75 43 67 54 Z"/>
    <path d="M46 54 C42 45 48 38 45 30 C53 36 56 45 52 53 Z"/>
    <path d="M74 54 C78 46 74 39 78 32 C82 39 83 47 78 55 Z"/>
  </g>
  <!-- ハート -->
  <path d="M60 92 C36 74 27 62 35 50 C41 42 53 44 60 54 C67 44 79 42 85 50 C93 62 84 74 60 92 Z"
        fill="#efe3c6" stroke="#3f2d18" stroke-width="3" stroke-linejoin="round"/>
  <!-- ハートのハイライト線 -->
  <path d="M46 58 C44 64 47 70 54 76" fill="none" stroke="#8a6a3f" stroke-width="2" stroke-linecap="round" opacity="0.7"/>
</svg>
